<svg id="Layer_2" data-name="Layer 2" xmlns="http://www.w3.org/2000/svg" xmlns:xlink="http://www.w3.org/1999/xlink" viewBox="0 0 400 300" width="406" height="306" class="illustration styles_illustrationTablet__1DWOa"><defs><linearGradient id="linear-gradient" x1="279.41" y1="208.97" x2="295.44" y2="198.86" gradientUnits="userSpaceOnUse"><stop offset="0" stop-color="#fff" stop-opacity="0"></stop><stop offset="0.99" stop-color="#0048aa"></stop></linearGradient><linearGradient id="linear-gradient-2" x1="169.58" y1="272.22" x2="200.85" y2="252.5" xlink:href="#linear-gradient"></linearGradient></defs><title>OK</title><path d="M362,197c-34.24,18.38-135,76.52-166.72,94.87a19.25,19.25,0,0,1-19.35,0L55.22,221.34c-4.8-2.8-3.26-8.11,1.58-10.85L225.3,112.59a5.77,5.77,0,0,1,5.69,0l131.17,74.59A5.62,5.62,0,0,1,362,197Z" fill="#709ff9"></path><path d="M282.73,209.22c.58.27,7.19,4.25,7.85,4.51l31.11-18.38-3.26-7.4L303,183.44l-32.81,18.31C275.71,205,276.91,206.57,282.73,209.22Z" opacity="0.32" fill="url(#linear-gradient)"></path><path d="M82.87,89.8a4.82,4.82,0,0,0-2.4,4.2V212.33c-.18,2.42,2.56,4.65,4.77,3.38l48.46-27.59c1.95-1.12,90.66-51,90.66-53.26l4.81-124a2.32,2.32,0,0,0-3.46-2.12C204.08,21,92.69,84.09,82.87,89.8Z" fill="#00275e"></path><path d="M107,79.31l-22.15,13a1.4,1.4,0,0,0-.69,1.21V211.76a1,1,0,0,0,1.43.83l138.89-80.79a6.34,6.34,0,0,1-2.61,5.08c-2.66,1.7-136.63,78.84-136.63,78.84s-3.7,1.67-4.77-2.74V94a4.87,4.87,0,0,1,2-3.95c2.14-1.55,140.07-81.9,140.07-81.9s5-1.84,6.69,1.18L121.15,71.14" fill="#68e1fd"></path><polyline points="316.87 69.39 323.6 65.19 327.27 71.35 318.12 71.35" fill="#45126d"></polyline><path d="M336.32,88.79a2.18,2.18,0,0,1-2.85-.7,2.32,2.32,0,0,1-.61-.62,2.16,2.16,0,0,1,.76-2.89c.7-.49,1.42-.92,2.16-1.34l0-.1,6.73-4.2L333,71.35h-5.73l-1.8,3.59-6.29,1.63v8.26l5.84,6.5,5.05,6.87,1.8,5.73-7-4.27-6.79-6.88s-7.67,5.43-6.22,5.2,20.8,15.32,20.8,15.32l8.25-5.12L336.87,88.5A4.6,4.6,0,0,1,336.32,88.79Z" fill="#45126d"></path><polyline points="304.77 95.84 312.78 90.91 306.61 89.43" fill="#45126d"></polyline><path d="M307.8,70.55a5.62,5.62,0,0,1-2.28-2.28,2.16,2.16,0,0,1,.76-2.89c.63-.41.45.19,1.11.56l7.23-4.36L302.28,50.28l-6.44-2.57-8.16,5,4.66,6-.17,9.12L297,74.26l4,6.32,2.34,6.57-6.16-5.07-7-6.81-6.75,4.16L295.8,89.89,301.54,93l8.2-7.44.6-7.6-1.44-7.12A2.29,2.29,0,0,1,307.8,70.55Z" fill="#45126d"></path><polyline points="255.64 33.74 262.37 29.54 281.67 41.1 288.4 47.63 281.67 51.84 277.05 43.9 262.22 38.74 260.3 46.72 262.67 57.35 266.94 65.77 273.6 68.29 281.67 66.96 287.11 72.87 280.97 76.57 270.05 73.87 262.37 69.01 258.08 63.12 255.64 55.64 253.8 48.05" fill="#45126d"></polyline><path d="M275.18,31.56A28.64,28.64,0,0,1,280,35.41a30.86,30.86,0,0,1,3.73,4.28c1,1.37,1.82,2.67,2.56,3.89a27.2,27.2,0,0,1,1.58,2.93l.49,1.13-4.63,2.43c-.09-.19-.2-.47-.36-.84s-.49-1-1-2a27.49,27.49,0,0,0-1.75-2.77,25.54,25.54,0,0,0-2.52-2.91,17.81,17.81,0,0,0-3.23-2.63q-4.58-2.86-7.78-1.18t-3.41,7.05a21.33,21.33,0,0,0,2.73,10.87A21.46,21.46,0,0,0,274,64.05a12.8,12.8,0,0,0,3.42,1.55,7.6,7.6,0,0,0,2.75.32,8.9,8.9,0,0,0,1.95-.41,3.57,3.57,0,0,0,1.24-.65l.38-.33,4,7.83a4,4,0,0,1-.58.5,10.27,10.27,0,0,1-1.73.8,9.77,9.77,0,0,1-2.84.6,12.8,12.8,0,0,1-3.91-.58,18.58,18.58,0,0,1-5-2.25A35.79,35.79,0,0,1,261.3,57.72q-4.9-9.06-4.59-17.29t5.66-10.88Q267.72,26.9,275.18,31.56Z" fill="#45126d"></path><path d="M304,49.6a25.58,25.58,0,0,1,3.85,3,28.66,28.66,0,0,1,3,3.19c.77,1,1.45,1.91,2,2.8a17.29,17.29,0,0,1,1.24,2.13l.39.79-4.39,2.58c-.17-.37-.41-.83-.73-1.39a21.56,21.56,0,0,0-2-2.74,13.33,13.33,0,0,0-3.2-2.93q-2-1.25-3.26-.81a2.09,2.09,0,0,0-1.33,2.15,6.66,6.66,0,0,0,1.53,4.11,36.09,36.09,0,0,0,3.93,4.46q2.32,2.28,4.66,4.82a22.58,22.58,0,0,1,3.9,6A16,16,0,0,1,315.11,85c-.13,3.53-1.34,5.74-3.61,6.61s-5.34.1-9.19-2.31a28.05,28.05,0,0,1-4.38-3.41,31.72,31.72,0,0,1-3.44-3.74q-1.34-1.77-2.35-3.35a23.87,23.87,0,0,1-1.44-2.51l-.5-1L294.59,73c.2.41.48,1,.85,1.66A25.78,25.78,0,0,0,298,78.15a17.14,17.14,0,0,0,4.14,3.76q2.53,1.58,4,1.07c1-.33,1.5-1.21,1.55-2.63a6.7,6.7,0,0,0-1.53-4.12,34.58,34.58,0,0,0-4-4.47q-2.35-2.28-4.66-4.81a22.5,22.5,0,0,1-3.88-6,15.94,15.94,0,0,1-1.43-7.25q.18-4.64,3.47-5.94T304,49.6Z" fill="#45126d"></path><path d="M332,67.05a25.58,25.58,0,0,1,3.85,3,28.06,28.06,0,0,1,3,3.19c.78,1,1.46,1.92,2,2.8a17.06,17.06,0,0,1,1.23,2.12l.39.79-4.38,2.58c-.17-.37-.41-.83-.73-1.39a21.56,21.56,0,0,0-2-2.74,13.37,13.37,0,0,0-3.2-2.93q-2-1.25-3.27-.81a2.11,2.11,0,0,0-1.32,2.16,6.62,6.62,0,0,0,1.53,4.11,35.81,35.81,0,0,0,3.93,4.46q2.32,2.28,4.66,4.82a22.69,22.69,0,0,1,3.9,6,16,16,0,0,1,1.43,7.26c-.13,3.53-1.34,5.74-3.62,6.61s-5.34.1-9.19-2.3a28.05,28.05,0,0,1-4.38-3.41,31.44,31.44,0,0,1-3.44-3.74q-1.34-1.77-2.35-3.35a23.87,23.87,0,0,1-1.44-2.51l-.5-1,4.39-2.28c.21.42.49,1,.86,1.66a26,26,0,0,0,2.51,3.44A17.18,17.18,0,0,0,330,99.36q2.53,1.58,4,1.08c1-.33,1.5-1.21,1.55-2.63A6.69,6.69,0,0,0,334,93.69a34.2,34.2,0,0,0-3.95-4.47q-2.35-2.28-4.66-4.81a22.55,22.55,0,0,1-3.89-6,16,16,0,0,1-1.42-7.24q.18-4.64,3.47-5.94T332,67.05Z" fill="#45126d"></path><path d="M268.45,35.77a28.64,28.64,0,0,1,4.86,3.85A30.86,30.86,0,0,1,277,43.9c1,1.37,1.82,2.67,2.56,3.89a27.2,27.2,0,0,1,1.58,2.93l.49,1.13L277,54.27c-.09-.19-.2-.47-.36-.84s-.49-1-1-2a27.49,27.49,0,0,0-1.75-2.77,25.54,25.54,0,0,0-2.52-2.91,17.81,17.81,0,0,0-3.23-2.63q-4.58-2.86-7.78-1.18T257,49a21.33,21.33,0,0,0,2.73,10.87,21.46,21.46,0,0,0,7.51,8.38,12.8,12.8,0,0,0,3.42,1.55,7.6,7.6,0,0,0,2.75.32,8.9,8.9,0,0,0,1.95-.41,3.57,3.57,0,0,0,1.24-.65l.38-.33,4,7.83a4,4,0,0,1-.58.5,10.27,10.27,0,0,1-1.73.8,9.77,9.77,0,0,1-2.84.6,12.8,12.8,0,0,1-3.91-.58,18.58,18.58,0,0,1-5-2.25,35.79,35.79,0,0,1-12.37-13.72q-4.9-9.06-4.59-17.29t5.66-10.88Q261,31.11,268.45,35.77Z" fill="#68e1fd"></path><path d="M297.32,53.81a25.58,25.58,0,0,1,3.85,3,28.66,28.66,0,0,1,3,3.19c.77,1,1.45,1.91,2,2.8a17.29,17.29,0,0,1,1.24,2.13l.39.79-4.39,2.58c-.17-.37-.41-.83-.73-1.39a21.56,21.56,0,0,0-2-2.74,13.33,13.33,0,0,0-3.2-2.93q-2-1.25-3.26-.81a2.09,2.09,0,0,0-1.33,2.15,6.66,6.66,0,0,0,1.53,4.11,36.09,36.09,0,0,0,3.93,4.46q2.32,2.28,4.66,4.82a22.58,22.58,0,0,1,3.9,6,16,16,0,0,1,1.43,7.26c-.13,3.53-1.34,5.74-3.61,6.61s-5.34.1-9.19-2.31a28.05,28.05,0,0,1-4.38-3.41,31.72,31.72,0,0,1-3.44-3.74q-1.34-1.77-2.35-3.35A23.87,23.87,0,0,1,284,80.52l-.5-1,4.39-2.28c.2.41.48,1,.85,1.66a25.78,25.78,0,0,0,2.52,3.45,17.14,17.14,0,0,0,4.14,3.76q2.53,1.58,4,1.07c1-.33,1.5-1.21,1.55-2.63a6.7,6.7,0,0,0-1.53-4.12,34.58,34.58,0,0,0-4-4.47q-2.35-2.28-4.66-4.81a22.5,22.5,0,0,1-3.88-6,15.94,15.94,0,0,1-1.43-7.25q.18-4.64,3.47-5.94T297.32,53.81Z" fill="#68e1fd"></path><path d="M325.24,71.26a25.58,25.58,0,0,1,3.85,3,28.06,28.06,0,0,1,3,3.19c.78,1,1.46,1.92,2,2.8a17.06,17.06,0,0,1,1.23,2.12l.39.79-4.38,2.58c-.17-.37-.41-.83-.73-1.39a21.56,21.56,0,0,0-2-2.74,13.37,13.37,0,0,0-3.2-2.93q-2-1.25-3.27-.81A2.11,2.11,0,0,0,320.87,80a6.62,6.62,0,0,0,1.53,4.11,35.81,35.81,0,0,0,3.93,4.46q2.32,2.28,4.66,4.82a22.69,22.69,0,0,1,3.9,6,16,16,0,0,1,1.43,7.26c-.13,3.53-1.34,5.74-3.62,6.61s-5.34.1-9.19-2.3a28.05,28.05,0,0,1-4.38-3.41,31.44,31.44,0,0,1-3.44-3.74q-1.34-1.77-2.35-3.35A23.87,23.87,0,0,1,311.9,98l-.5-1,4.39-2.28c.21.42.49,1,.86,1.66a26,26,0,0,0,2.51,3.44,17.18,17.18,0,0,0,4.14,3.76q2.53,1.58,4,1.08c1-.33,1.5-1.21,1.55-2.63a6.69,6.69,0,0,0-1.54-4.13,34.2,34.2,0,0,0-3.95-4.47q-2.35-2.28-4.66-4.81a22.55,22.55,0,0,1-3.89-6,16,16,0,0,1-1.42-7.24q.18-4.64,3.47-5.94T325.24,71.26Z" fill="#68e1fd"></path><polygon points="184.36 61.68 184.36 65.06 212.59 48.65 212.59 45.36 184.36 61.68" fill="#f7931e"></polygon><polygon points="181.55 63.3 101.97 109.31 101.97 112.94 181.55 66.69 181.55 63.3" fill="#00a99d"></polygon><polygon points="114.42 113.09 101.97 120.29 101.97 123.92 114.42 116.69 114.42 113.09" fill="#8cc63f"></polygon><polygon points="117.23 111.47 117.23 115.05 161.79 89.16 161.79 85.71 117.23 111.47" fill="#f7931e"></polygon><polygon points="164.6 84.09 164.6 87.53 193.74 70.59 193.74 67.24 164.6 84.09" fill="#f15a24"></polygon><polygon points="196.55 65.61 196.55 68.96 212.59 59.64 212.59 56.34 196.55 65.61" fill="#8cc63f"></polygon><polygon points="182.45 84.67 102.87 130.67 102.87 134.3 182.45 88.05 182.45 84.67" fill="#00a99d"></polygon><polygon points="188.87 101.62 188.87 105 217.1 88.59 217.1 85.3 188.87 101.62" fill="#f7931e"></polygon><polygon points="186.06 103.25 106.48 149.25 106.48 152.88 186.06 106.63 186.06 103.25" fill="#00a99d"></polygon><polygon points="118.93 153.04 106.48 160.24 106.48 163.86 118.93 156.63 118.93 153.04" fill="#8cc63f"></polygon><polygon points="121.74 151.41 121.74 155 166.3 129.1 166.3 125.65 121.74 151.41" fill="#f7931e"></polygon><polygon points="169.11 124.03 169.11 127.47 198.25 110.53 198.25 107.18 169.11 124.03" fill="#f15a24"></polygon><polygon points="201.06 105.56 201.06 108.9 217.1 99.58 217.1 96.29 201.06 105.56" fill="#8cc63f"></polygon><polygon points="186.96 124.61 107.38 170.62 107.38 174.24 186.96 128 186.96 124.61" fill="#00a99d"></polygon><path d="M318.37,169.47c-.74-1.58-4-2.78-7.91-2.78s-7.34,1.26-8,2.9c-4.6,6.44-9.13,16.93-3.47,24a14.42,14.42,0,0,0,11.11,5h.68a14.42,14.42,0,0,0,11.11-5C327.63,186.48,323,175.9,318.37,169.47Z" fill="#68e1fd"></path><ellipse cx="310.46" cy="170.15" rx="8.07" ry="3.46" opacity="0.5"></ellipse><path d="M319.88,140.79a66.77,66.77,0,0,0-9,27.66,193.12,193.12,0,0,0-3.24-35.21c-.08-.41-.71-.24-.63.17a192.2,192.2,0,0,1,3.18,39.39.31.31,0,0,0,.41.3c0,.1,0,.19,0,.29a.33.33,0,0,0,.65,0,66.08,66.08,0,0,1,9.16-32.27A.33.33,0,0,0,319.88,140.79Z" fill="#fe6162"></path><path d="M314.78,151.53s5-16.06,15.71-22c0,0-2.17,3.19-1.16,5.79s2.61,7.24-2.46,9.85-8,0-7.53,5.07,2.44,7.53-.81,10-6,4.61-7.1,9.91C311.43,170.15,312.66,156.87,314.78,151.53Z" fill="#fe6162"></path><path d="M310,149.84s-2.08-24.67-6.42-30.91a11.47,11.47,0,0,1-1.22,6.94c-1.88,3.57-3.9,4.81-2.81,9.46s5.49,3.72,5.07,8.37-4.1,3.77-2.26,9.64,8.09,9.73,8.09,9.73" fill="#fe6162"></path><path d="M176.39,272.61c1.17.53,14.37,8.5,15.71,9l62.21-36.76-21.57-11.1-30.85-3.59-50.6,27.51C162.34,264.1,164.76,267.31,176.39,272.61Z" opacity="0.32" fill="url(#linear-gradient-2)"></path><path d="M213.68,218.74s.18,3.06-.77,3.91-6-1.52-7.41-.68,5.12,7,7.41,7.31,4.4-2.91,4.4-2.91V231l2.59,1.47,1.9-1.13-.56-12.59Z" fill="#060638"></path><path d="M217.14,203.24a13.48,13.48,0,0,1,10.78-2.51c4.24.93,7.9,3.59,12.22,4.25.68.1,3.41-.07,3.82.32,12,11.36-21.56,10.15-21.56,10.15-3.26-2.67-6.32-5.29-9.56-8C213.82,205.27,215.47,204.41,217.14,203.24Z" fill="#f8997c"></path><path d="M232.94,219.72,234.13,254c0,1.3-2,1.3-2,0l-1.19-34.29C230.87,218.42,232.9,218.42,232.94,219.72Z" fill="#844040"></path><path d="M207.77,238.06q9.17-9,17.52-18.73c.85-1,2.27.45,1.43,1.43q-8.34,9.75-17.52,18.73C208.27,240.4,206.84,239,207.77,238.06Z" fill="#844040"></path><path d="M239.95,216.54q7.12,13.44,13.41,27.29c.53,1.18-1.21,2.2-1.74,1Q245.32,231,238.2,217.56C237.59,216.41,239.34,215.39,239.95,216.54Z" fill="#844040"></path><path d="M213.4,206.45a16.26,16.26,0,0,0,8.13,5.88c4.59,1.37,11.26.73,13.67-4,4.39-8.6.27-19.36,4.9-27.72a8.48,8.48,0,0,1,5.37-4.35c3-.65,5.06,1.58,6.15,4.19,2,4.69,1.88,10.53,1.79,15.53a83.55,83.55,0,0,1-.89,12.06s-2.81,16.76-24.69,12.26a33.22,33.22,0,0,1-10.75-3.92,14.76,14.76,0,0,1-4.39-3.8C211.36,210.66,212.25,208.38,213.4,206.45Z" fill="#68e1fd"></path><path d="M229.31,204.63a116.11,116.11,0,0,1-1.24-18.16,1.64,1.64,0,0,1,.32-1c0-.6,0-1.2,0-1.81-4-.14-10.46.37-15.09,3.54-6.07,4.16-3.21,30.16-.78,34.44,3.38,1.45,6.31,1.53,9-.82l2.73-15.59a27,27,0,0,0,5.27,2.12Q229.42,206,229.31,204.63Z" fill="#124577"></path><path d="M198.26,222.53s.18,3.06-.77,3.91-6-1.52-7.41-.68,5.12,7,7.41,7.31,4.4-2.91,4.4-2.91v4.61l2.59,1.47,1.9-1.13-.56-12.59Z" fill="#060638"></path><path d="M207,224.78c-2.72,2.34-5.65,2.27-9,.82-2.43-4.27-5.29-30.28.78-34.44,6.52-4.46,16.71-3.67,18.42-3.18l25,4.09c1.92,3.26-3.16,20.34-14.25,20.81s-18.17-3.69-18.17-3.69Z" fill="#124577"></path><path d="M216.71,153.42a5.93,5.93,0,0,1,2.8,2.56l0,.09c1.76,1.44,2,4.06,3.9,5.36,0,.05,1.76,1.28,1.77,1.33s-.17-2.4-.16-2.39v0c.61,1.66,1.2,3.32,1.72,5a1,1,0,0,1-.27.12l.2.1.17.1a.57.57,0,0,0,.33.38,1.33,1.33,0,0,1-1.85,1.56l-5.65-2.76a15.75,15.75,0,0,1-2.21-.64c0-.59-.09-1.18-.15-1.77a5,5,0,0,1-.38-4.68.53.53,0,0,0-.1-.1l0-.06a4.3,4.3,0,0,1-1.78-2.81C215,154,215.81,153,216.71,153.42Z" fill="#f7931e"></path><path d="M223.89,158.75s-6.44,4-7.11,7.33c0,0,4.52,9.82,4.22,10.21-5.11,6.66,10.21-4.22,10.21-4.22S228.11,162.75,223.89,158.75Z" fill="#68e1fd"></path><path d="M209.24,161.2c-.53,4.45,5.14,10.64,7.53,11.84,3.28,1.64,4.55-12,19-11.93.93,0,5.6-2,8.06,4.15s0,23.75-1.64,26.82c-1.45,2.71-11.05,9.21-24.77,2.25l-.2-6.35s-8.1-.17-12.38-6.13c-4-5.55-6.37-13.89-6-18C202,162.45,206.05,160.15,209.24,161.2Z" fill="#68e1fd"></path><path d="M223.89,158.75s-6.44,4-7.11,7.33c0,0,4.52,9.82,4.22,10.21-5.11,6.66,10.21-4.22,10.21-4.22S228.11,162.75,223.89,158.75Z" fill="#8787d1"></path><polyline points="215.23 141.88 198.14 145.66 201.02 169.63 217.45 164.31" fill="#124577"></polyline><path d="M199,160.22a.51.51,0,0,0,.15.12q-.06,2-.11,4c0,.68,1,.59,1.05-.09,0-.06,0-.12,0-.18a.59.59,0,0,0,.69-.4l0-.13a.49.49,0,0,0,.51-.07.58.58,0,0,0,.37-.22.61.61,0,0,0,.45.23l0,.48c0,.59,1,.65,1,.06l0-.43c.16.45,1,.44,1-.09l0-.58a.51.51,0,0,0,.18-.09v.1a.53.53,0,0,0,1,.06l.07-.27a.5.5,0,0,0,.69-.22,22.62,22.62,0,0,0,1.69-4.38,2.62,2.62,0,0,0-.93-3,.48.48,0,0,0-.34-.13v0c.07-.72.15-1.45.23-2.17a12.29,12.29,0,0,0,.22-1.54,1.67,1.67,0,0,0-.06-1.14c-.12-.52-.41-1-1-.86-.94.17-1.32,1.57-1.55,2.34A21.65,21.65,0,0,0,204,154a1.35,1.35,0,0,0-.43-.31,1.44,1.44,0,0,0-1.56.43l-.08.1a1.59,1.59,0,0,0-.4-.32,1.38,1.38,0,0,0-1.56.06,1.54,1.54,0,0,0-.55.86,1.37,1.37,0,0,0-1.82,1C197.06,157.31,198,159.12,199,160.22Zm4.33-5.38H203a.59.59,0,0,0-.07-.13.34.34,0,0,1,.29,0Z" fill="#f7931e"></path><path d="M228.11,144.88c0,.15-.89,9.15,1.12,11.14s7.37,1.16,8.7-1,3-5,1.54-8.38S228.35,142.66,228.11,144.88Z" fill="#f7931e"></path><path d="M231,150.74a.9.9,0,0,1,.15-1,4.35,4.35,0,0,1,2.43-1.51,1.82,1.82,0,0,1,2.13,1.15c.62,2-2.7,2.64-4.05,2.82a.9.9,0,0,1-.9-.9A.81.81,0,0,1,231,150.74Z" fill="#ffe8e6"></path><path d="M209.24,161.2c-.53,4.45,5.14,10.64,7.53,11.84,3.28,1.64,4.55-12,19-11.93.93,0,5.6-2,8.06,4.15s0,23.75-1.64,26.82c-1.45,2.71-11.05,9.21-24.77,2.25l-.2-6.35s-8.1-.17-12.38-6.13c-4-5.55-6.37-13.89-6-18C202,162.45,206.05,160.15,209.24,161.2Z" fill="#8787d1"></path><path d="M210.37,186.42a17.74,17.74,0,0,0,20.79-6.9c.29-.44,1,0,.71.41a18.57,18.57,0,0,1-21.71,7.28C209.66,187,209.87,186.24,210.37,186.42Z" fill="#fff"></path><path d="M218.46,171.51a13.19,13.19,0,0,1,3.19-4.51c1.57-1.43,3.51-2.34,5.15-3.68.33-.27.8.2.47.47-1.55,1.26-3.37,2.14-4.88,3.45a12.7,12.7,0,0,0-3.35,4.61C218.87,172.24,218.29,171.9,218.46,171.51Z" fill="#fff"></path><path d="M227.91,146.15l2.87,1.51s-2.22,8.44-2.89,10.66,2,5.33,10.66,5.55,8.22-12.88,6.22-17.76-8-7.11-12.88-5.77A5,5,0,0,0,227.91,146.15Z" fill="#b24d16"></path><path d="M212.43,208.41a1.38,1.38,0,0,1,2.3-.41,15.48,15.48,0,0,0,6.8,4.33c4.59,1.37,11.26.73,13.67-4,4.37-8.57.3-19.28,4.85-27.63a9.21,9.21,0,0,1,3.42-3.64c4.11-2.37,6.84.22,8.16,3.38,2,4.69,1.88,10.53,1.79,15.53a83.55,83.55,0,0,1-.89,12.06s-2.81,16.76-24.69,12.26a33.22,33.22,0,0,1-10.75-3.92,14.76,14.76,0,0,1-4.39-3.8A4.3,4.3,0,0,1,212.43,208.41Z" fill="#68e1fd"></path></svg>