<svg xmlns="http://www.w3.org/2000/svg" xmlns:xlink="http://www.w3.org/1999/xlink" viewBox="0 0 400 300" width="406" height="306" class="illustration styles_illustrationTablet__1DWOa"><defs><linearGradient id="linear-gradient" x1="204.08" y1="209.62" x2="139.19" y2="244.59" gradientUnits="userSpaceOnUse"><stop offset="0" stop-color="#d4a397"></stop><stop offset="1" stop-color="#fff"></stop></linearGradient></defs><title>0</title><g style="isolation: isolate;"><g id="Layer_2" data-name="Layer 2"><path d="M62.32,201l152.25,85.9a13.52,13.52,0,0,0,13.4-.07l83.44-48.17a8.78,8.78,0,0,0,0-15.21L160.5,136.34a12.72,12.72,0,0,0-12.72,0L62.25,185.73A8.78,8.78,0,0,0,62.32,201Z" fill="#ff952c"></path><path d="M316.84,92.87,178.41,13.24a4.23,4.23,0,0,0-6.32,3.33l-8.85,110.38c-.43,5.36,6.62,8,10.53,10.16l13.85,7.69L227.68,167,270,190.56l27.65,15.36c1,.58,2.1,1.15,3.14,1.74a4.23,4.23,0,0,0,6.28-3.22L318.93,97A4.23,4.23,0,0,0,316.84,92.87Z" fill="#172d51"></path><rect x="84.27" y="127.33" width="10.67" height="70.74" rx="1.74" ry="1.74" fill="#bc532a"></rect><path d="M116,141.8c-2.46-10.68-13.39-57.72-32.76-43.89-9.92,7.08-12.73,18.15-16.7,29-3.29,9-6,18.4-6.17,28-.31,19.57,19.6,22,34.83,21.89,8.78,0,21.32-5.23,23.37-14.76,1.24-5.75-.87-12.53-2.1-18.17Q116.19,142.84,116,141.8Z" fill="#2c9135"></path><path d="M116.88,143.87q-.23-1-.47-2.08c-2.18-9.44-11-47.31-26.38-46.38,4.57,20,11.32,41.06,7.72,61.49a46.73,46.73,0,0,1-8.15,19.78c2,.1,4.07.13,6,.12,8.78,0,21.32-5.23,23.37-14.76C120.22,156.29,118.11,149.51,116.88,143.87Z" fill="#156819"></path><polygon points="297.23 229.87 291.53 232.33 270.56 219.93 206.81 256.74 201.38 254.04 201.38 259.87 228.5 275.91 297.23 235.69 297.18 235.66 297.23 235.68 297.23 229.87" fill="#68e1fd"></polygon><polygon points="297.23 229.87 291.53 232.33 270.56 219.93 206.81 256.74 201.38 254.04 201.38 259.87 228.5 275.91 297.23 235.69 297.18 235.66 297.23 235.68 297.23 229.87" fill="#2e90a0" opacity="0.47"></polygon><polygon points="201.38 254.04 228.5 270.09 297.23 229.87 270.56 214.11 201.38 254.04" fill="#68e1fd"></polygon><polygon points="229.46 244.25 241.26 237.34 244.04 239.34 239.76 241.85 251.39 250.19 248.18 252.08 236.55 243.74 232.25 246.25 229.46 244.25" fill="#fff"></polygon><polygon points="214.23 253.18 217.46 251.29 223.23 255.44 229.67 251.66 223.9 247.52 227.11 245.64 241.53 255.98 238.31 257.87 232.44 253.65 226.01 257.43 231.88 261.64 228.65 263.53 214.23 253.18" fill="#fff"></polygon><polygon points="263.56 224.26 266.79 222.37 278.43 230.72 285.4 226.64 288.17 228.63 277.98 234.6 263.56 224.26" fill="#fff"></polygon><polygon points="243.62 235.95 246.52 234.25 257.94 235.74 256.85 228.19 259.71 226.52 274.13 236.86 270.91 238.75 261.3 231.85 262.37 238.92 251.69 237.54 261.26 244.41 258.03 246.3 243.62 235.95" fill="#fff"></polygon><polygon points="216.85 60.72 216.85 64.31 186.83 46.86 186.83 43.36 216.85 60.72" fill="#f7931e"></polygon><polygon points="219.84 62.44 304.46 111.36 304.46 115.22 219.84 66.05 219.84 62.44" fill="#00a99d"></polygon><polygon points="291.22 115.39 304.46 123.04 304.46 126.9 291.22 119.21 291.22 115.39" fill="#8cc63f"></polygon><polygon points="288.24 113.67 288.24 117.47 240.85 89.94 240.85 86.27 288.24 113.67" fill="#f7931e"></polygon><polygon points="237.87 84.55 237.87 88.2 206.87 70.19 206.87 66.63 237.87 84.55" fill="#f15a24"></polygon><polygon points="203.89 64.9 203.89 68.46 186.83 58.55 186.83 55.04 203.89 64.9" fill="#8cc63f"></polygon><polygon points="218.89 85.16 303.51 134.08 303.51 137.94 218.89 88.76 218.89 85.16" fill="#00a99d"></polygon><polygon points="209.62 108 209.62 111.6 179.6 94.15 179.6 90.65 209.62 108" fill="#f7931e"></polygon><polygon points="212.61 109.73 297.23 158.65 297.23 162.51 212.61 113.33 212.61 109.73" fill="#00a99d"></polygon><polygon points="283.99 162.68 297.23 170.33 297.23 174.19 283.99 166.5 283.99 162.68" fill="#8cc63f"></polygon><polygon points="281.01 160.95 281.01 164.76 233.62 137.23 233.62 133.56 281.01 160.95" fill="#f7931e"></polygon><polygon points="230.64 131.83 230.64 135.49 199.65 117.48 199.65 113.92 230.64 131.83" fill="#f15a24"></polygon><polygon points="196.66 112.19 196.66 115.74 179.6 105.83 179.6 102.33 196.66 112.19" fill="#8cc63f"></polygon><polygon points="211.66 132.45 296.28 181.37 296.28 185.23 211.66 136.05 211.66 132.45" fill="#00a99d"></polygon><path d="M139.53,242.28c4.28,3,8.41,6.2,12.5,9.46l37.4-25.18-30.18-6.86-26.69,18C134.92,239.14,137.25,240.67,139.53,242.28Z" fill="url(#linear-gradient)" style="mix-blend-mode: multiply;"></path><path d="M176.64,104.19a5.3,5.3,0,0,0-2.5,2.29l0,.08c-1.57,1.28-1.82,3.63-3.48,4.79,0,0-1.57,1.15-1.59,1.19s.15-2.15.14-2.13v0c-.54,1.48-1.07,3-1.54,4.48a.93.93,0,0,0,.24.11l-.17.09-.15.09a.51.51,0,0,1-.3.34,1.19,1.19,0,0,0,1.66,1.4l5-2.47a14.08,14.08,0,0,0,2-.58c0-.53.08-1.05.13-1.58a4.43,4.43,0,0,0,.34-4.18l.09-.09,0-.06a3.85,3.85,0,0,0,1.59-2.51C178.16,104.73,177.44,103.82,176.64,104.19Z" fill="#f7931e"></path><path d="M161.68,215v4.57s9.65-3.58,11.51-2c2.78,2.38-5.16,7.15-13.3,8.74a9.62,9.62,0,0,1-4.81.14c-2.41-.84-1.39-4.48-1.4-6.35s-.1-3.93-.14-5.9" fill="#56403d"></path><path d="M175.78,221.33v4.57s9.65-3.58,11.51-2c2.78,2.38-5.16,7.15-13.3,8.74a9.62,9.62,0,0,1-4.81.14c-2.41-.84-1.39-4.48-1.4-6.35s-.1-3.93-.14-5.9" fill="#56403d"></path><path d="M176,140.73s9.13,61.54,8.14,75.84c0,0-2.38,9.53-23,6.35,0,0-1.79-7.15-1-19.26s3-62.93,3-62.93Z" fill="#68e1fd"></path><path d="M170.91,213.46,167.8,140l-13.86-1.29s-4,19.06-2.78,28.19-1.39,21.24-2,27.6c-.53,5.7-.75,15.55,1.22,20C157.06,216.39,164.27,215.75,170.91,213.46Z" fill="#68e1fd"></path><path d="M170.22,109s5.76,3.57,6.35,6.55c0,0-4,8.78-3.77,9.13,4.57,6-9.13-3.77-9.13-3.77S166.45,112.54,170.22,109Z" fill="#6de2fc"></path><path d="M183.32,111.15c.48,4-4.6,9.51-6.74,10.58-2.93,1.46-4.07-10.72-17-10.67-.83,0-5-1.78-7.21,3.71s0,21.23,1.46,24c1.29,2.42,9.88,8.24,22.15,2l.18-5.67s7.24-.16,11.07-5.48c3.57-5,5.7-12.42,5.36-16.08C189.75,112.27,186.17,110.21,183.32,111.15Z" fill="#6de2fc"></path><path d="M170.22,109s5.76,3.57,6.35,6.55c0,0-4,8.78-3.77,9.13,4.57,6-9.13-3.77-9.13-3.77S166.45,112.54,170.22,109Z" fill="#8787d1"></path><polyline points="179.6 90.65 193.25 97.25 190.67 118.69 176.05 112.31" fill="#68e1fd"></polyline><path d="M193.74,106.3a1.22,1.22,0,0,0-1.63-.87,1.37,1.37,0,0,0-.49-.77,1.23,1.23,0,0,0-1.39-.06,1.42,1.42,0,0,0-.36.29l-.07-.09a1.29,1.29,0,0,0-1.4-.38,1.21,1.21,0,0,0-.38.28,19.36,19.36,0,0,0-.54-2.07c-.2-.68-.54-1.94-1.38-2.09-.55-.1-.8.3-.91.77a1.49,1.49,0,0,0-.06,1,11,11,0,0,0,.2,1.37c.07.65.14,1.29.2,1.94v0a.43.43,0,0,0-.3.12,2.35,2.35,0,0,0-.83,2.65,20.22,20.22,0,0,0,1.51,3.91.44.44,0,0,0,.62.2l.06.24a.47.47,0,0,0,.93,0v-.09a.45.45,0,0,0,.16.08l0,.52c0,.48.77.48.91.08l0,.38c.06.53.9.48.93,0l0-.43a.54.54,0,0,0,.4-.21.52.52,0,0,0,.33.19.44.44,0,0,0,.46.06l0,.12a.53.53,0,0,0,.62.35v.16c0,.6,1,.68.94.08q0-1.81-.1-3.62a.45.45,0,0,0,.14-.1C193.37,109.29,194.21,107.67,193.74,106.3Zm-5.05-.91a.31.31,0,0,1,.26,0,.53.53,0,0,0-.06.12h-.28Z" fill="#f7931e"></path><path d="M166.45,96.56c0,.13.8,8.18-1,10s-6.59,1-7.78-.9-2.65-4.49-1.38-7.5S166.23,94.58,166.45,96.56Z" fill="#f7931e"></path><path d="M163.87,101.8a.8.8,0,0,0-.14-.86,3.89,3.89,0,0,0-2.18-1.35,1.63,1.63,0,0,0-1.91,1c-.55,1.83,2.41,2.36,3.62,2.52a.81.81,0,0,0,.8-.8A.72.72,0,0,0,163.87,101.8Z" fill="#ffe8e6"></path><path d="M188.26,104.27a4.53,4.53,0,0,0-.62,2.95c.05.4.67.28.62-.12a3.82,3.82,0,0,1,.52-2.47C189,104.27,188.47,103.92,188.26,104.27Z" fill="#42210b"></path><path d="M160.21,217.11a122.8,122.8,0,0,1-2.08-13.94,49.63,49.63,0,0,1,0-6.88,67,67,0,0,1,1-7,51,51,0,0,0,.57-12.63c-.32-4.33-1-8.62-1.4-12.95a46.6,46.6,0,0,1,.47-14.6c.14-.62-.82-.89-1-.26-1.92,8.63-.07,17.37.74,26a51.89,51.89,0,0,1-.25,13.42c-.36,2.17-.81,4.33-1,6.52a45.76,45.76,0,0,0-.16,7.06,114.26,114.26,0,0,0,2.2,15.54C159.37,218,160.33,217.74,160.21,217.11Z" fill="#fff"></path><path d="M183.32,111.15c.48,4-4.6,9.51-6.74,10.58-2.93,1.46-4.07-10.72-17-10.67-.83,0-5-1.78-7.21,3.71s0,21.23,1.46,24c1.29,2.42,9.88,8.24,22.15,2l.18-5.67s7.24-.16,11.07-5.48c3.57-5,5.7-12.42,5.36-16.08C189.75,112.27,186.17,110.21,183.32,111.15Z" fill="#8787d1"></path><path d="M182.31,133.7a15.87,15.87,0,0,1-18.59-6.17c-.26-.39-.89,0-.63.37a16.6,16.6,0,0,0,19.41,6.51C182.95,134.25,182.76,133.54,182.31,133.7Z" fill="#fff"></path><path d="M175.07,120.37a11.8,11.8,0,0,0-2.85-4c-1.4-1.28-3.14-2.09-4.6-3.29-.29-.24-.72.18-.42.42,1.38,1.13,3,1.92,4.37,3.08a11.36,11.36,0,0,1,3,4.12C174.71,121,175.22,120.72,175.07,120.37Z" fill="#fff"></path><path d="M166.63,97.69,164.06,99s2,7.54,2.58,9.53-1.79,4.76-9.53,5-7.35-11.51-5.56-15.88,7.15-6.35,11.51-5.16A4.5,4.5,0,0,1,166.63,97.69Z" fill="#b24d16"></path></g></g></svg>